<mxfile host="app.diagrams.net" modified="2024-03-20T14:11:36.756Z" agent="Mozilla/5.0 (X11; Linux x86_64) AppleWebKit/537.36 (KHTML, like Gecko) Chrome/108.0.0.0 Safari/537.36" etag="-fDrOmj2-Xazxr91XqqP" version="24.0.7" type="device">
  <diagram name="Page-1" id="ikppUzbMA4AgMU2g5fSF">
    <mxGraphModel dx="1433" dy="737" grid="1" gridSize="10" guides="1" tooltips="1" connect="1" arrows="1" fold="1" page="1" pageScale="1" pageWidth="850" pageHeight="1100" math="0" shadow="0">
      <root>
        <mxCell id="0" />
        <mxCell id="1" parent="0" />
        <mxCell id="fPFFHtyQ8fmGZfRSbvxg-5" value="Gatekeeper" style="rounded=1;whiteSpace=wrap;html=1;fillColor=#ffe6cc;strokeColor=#d79b00;verticalAlign=top;" vertex="1" parent="1">
          <mxGeometry x="210" y="455" width="140" height="185" as="geometry" />
        </mxCell>
        <mxCell id="fPFFHtyQ8fmGZfRSbvxg-33" value="flask" style="rounded=1;whiteSpace=wrap;html=1;fillColor=none;dashed=1;verticalAlign=top;" vertex="1" parent="1">
          <mxGeometry x="210" y="490" width="130" height="140" as="geometry" />
        </mxCell>
        <mxCell id="fPFFHtyQ8fmGZfRSbvxg-13" style="edgeStyle=orthogonalEdgeStyle;rounded=0;orthogonalLoop=1;jettySize=auto;html=1;" edge="1" parent="1" source="fPFFHtyQ8fmGZfRSbvxg-9" target="fPFFHtyQ8fmGZfRSbvxg-5">
          <mxGeometry relative="1" as="geometry" />
        </mxCell>
        <mxCell id="fPFFHtyQ8fmGZfRSbvxg-9" value="Controller" style="rounded=1;whiteSpace=wrap;html=1;fillColor=#ffe6cc;strokeColor=#d79b00;verticalAlign=top;" vertex="1" parent="1">
          <mxGeometry x="210" y="130" width="140" height="210" as="geometry" />
        </mxCell>
        <mxCell id="fPFFHtyQ8fmGZfRSbvxg-4" value="Train" style="rounded=1;whiteSpace=wrap;html=1;fillColor=none;align=center;verticalAlign=top;" vertex="1" parent="1">
          <mxGeometry x="520" y="130" width="160" height="210" as="geometry" />
        </mxCell>
        <mxCell id="fPFFHtyQ8fmGZfRSbvxg-17" style="edgeStyle=orthogonalEdgeStyle;rounded=0;orthogonalLoop=1;jettySize=auto;html=1;exitX=0;exitY=0;exitDx=0;exitDy=27.5;exitPerimeter=0;entryX=1.007;entryY=0.173;entryDx=0;entryDy=0;entryPerimeter=0;" edge="1" parent="1" source="fPFFHtyQ8fmGZfRSbvxg-1" target="fPFFHtyQ8fmGZfRSbvxg-5">
          <mxGeometry relative="1" as="geometry">
            <Array as="points">
              <mxPoint x="570" y="487" />
            </Array>
          </mxGeometry>
        </mxCell>
        <mxCell id="fPFFHtyQ8fmGZfRSbvxg-1" value="postgres" style="shape=cylinder3;whiteSpace=wrap;html=1;boundedLbl=1;backgroundOutline=1;size=15;fillColor=#dae8fc;strokeColor=#6c8ebf;" vertex="1" parent="1">
          <mxGeometry x="570" y="450" width="60" height="80" as="geometry" />
        </mxCell>
        <mxCell id="fPFFHtyQ8fmGZfRSbvxg-12" style="edgeStyle=orthogonalEdgeStyle;rounded=0;orthogonalLoop=1;jettySize=auto;html=1;" edge="1" parent="1" source="fPFFHtyQ8fmGZfRSbvxg-3" target="fPFFHtyQ8fmGZfRSbvxg-10">
          <mxGeometry relative="1" as="geometry" />
        </mxCell>
        <mxCell id="fPFFHtyQ8fmGZfRSbvxg-3" value="celery&lt;div&gt;producer&lt;/div&gt;" style="rounded=1;whiteSpace=wrap;html=1;fillColor=#d5e8d4;strokeColor=#82b366;" vertex="1" parent="1">
          <mxGeometry x="540" y="260" width="120" height="60" as="geometry" />
        </mxCell>
        <mxCell id="fPFFHtyQ8fmGZfRSbvxg-15" style="edgeStyle=orthogonalEdgeStyle;rounded=0;orthogonalLoop=1;jettySize=auto;html=1;exitX=0.75;exitY=0;exitDx=0;exitDy=0;entryX=0.75;entryY=1;entryDx=0;entryDy=0;" edge="1" parent="1" source="fPFFHtyQ8fmGZfRSbvxg-5" target="fPFFHtyQ8fmGZfRSbvxg-9">
          <mxGeometry relative="1" as="geometry" />
        </mxCell>
        <mxCell id="fPFFHtyQ8fmGZfRSbvxg-11" style="edgeStyle=orthogonalEdgeStyle;rounded=0;orthogonalLoop=1;jettySize=auto;html=1;exitX=0.5;exitY=1;exitDx=0;exitDy=0;" edge="1" parent="1" source="fPFFHtyQ8fmGZfRSbvxg-6" target="fPFFHtyQ8fmGZfRSbvxg-3">
          <mxGeometry relative="1" as="geometry" />
        </mxCell>
        <mxCell id="fPFFHtyQ8fmGZfRSbvxg-6" value="train" style="rounded=1;whiteSpace=wrap;html=1;fillColor=#ffe6cc;strokeColor=#d79b00;" vertex="1" parent="1">
          <mxGeometry x="545" y="210" width="110" height="30" as="geometry" />
        </mxCell>
        <mxCell id="fPFFHtyQ8fmGZfRSbvxg-7" value="train" style="rounded=1;whiteSpace=wrap;html=1;fillColor=#ffe6cc;strokeColor=#d79b00;" vertex="1" parent="1">
          <mxGeometry x="545" y="170" width="110" height="30" as="geometry" />
        </mxCell>
        <mxCell id="fPFFHtyQ8fmGZfRSbvxg-10" value="celery&lt;div&gt;consumer&lt;/div&gt;" style="rounded=1;whiteSpace=wrap;html=1;fillColor=#d5e8d4;strokeColor=#82b366;" vertex="1" parent="1">
          <mxGeometry x="220" y="260" width="120" height="60" as="geometry" />
        </mxCell>
        <mxCell id="fPFFHtyQ8fmGZfRSbvxg-18" style="edgeStyle=orthogonalEdgeStyle;rounded=0;orthogonalLoop=1;jettySize=auto;html=1;entryX=0.5;entryY=0;entryDx=0;entryDy=0;entryPerimeter=0;dashed=1;endArrow=none;endFill=0;" edge="1" parent="1" source="fPFFHtyQ8fmGZfRSbvxg-3" target="fPFFHtyQ8fmGZfRSbvxg-1">
          <mxGeometry relative="1" as="geometry" />
        </mxCell>
        <mxCell id="fPFFHtyQ8fmGZfRSbvxg-19" value="GATE" style="swimlane;whiteSpace=wrap;html=1;startSize=23;" vertex="1" parent="1">
          <mxGeometry x="370" y="540" width="210" height="100" as="geometry" />
        </mxCell>
        <mxCell id="fPFFHtyQ8fmGZfRSbvxg-24" value="&lt;font style=&quot;font-size: 12px;&quot;&gt;&lt;b&gt;closed&lt;/b&gt;,&amp;nbsp;&lt;span style=&quot;box-sizing: border-box; margin: 0px; color: var(--hljs-class-color); font-family: &amp;quot;Roboto Mono&amp;quot;, ui-monospace, SFMono-Regular, Menlo, Monaco, Consolas, &amp;quot;Liberation Mono&amp;quot;, &amp;quot;Courier New&amp;quot;, monospace; text-align: start; white-space: pre;&quot; class=&quot;hljs-built_in&quot;&gt;BOOLEAN&lt;/span&gt;&lt;span style=&quot;color: rgb(56, 58, 66); font-family: &amp;quot;Roboto Mono&amp;quot;, ui-monospace, SFMono-Regular, Menlo, Monaco, Consolas, &amp;quot;Liberation Mono&amp;quot;, &amp;quot;Courier New&amp;quot;, monospace; text-align: start; white-space: pre; background-color: rgb(250, 250, 250);&quot;&gt; &lt;/span&gt;&lt;span style=&quot;box-sizing: border-box; margin: 0px; color: var(--hljs-formula-color); font-family: &amp;quot;Roboto Mono&amp;quot;, ui-monospace, SFMono-Regular, Menlo, Monaco, Consolas, &amp;quot;Liberation Mono&amp;quot;, &amp;quot;Courier New&amp;quot;, monospace; text-align: start; white-space: pre;&quot; class=&quot;hljs-keyword&quot;&gt;NOT&lt;/span&gt;&lt;span style=&quot;color: rgb(56, 58, 66); font-family: &amp;quot;Roboto Mono&amp;quot;, ui-monospace, SFMono-Regular, Menlo, Monaco, Consolas, &amp;quot;Liberation Mono&amp;quot;, &amp;quot;Courier New&amp;quot;, monospace; text-align: start; white-space: pre; background-color: rgb(250, 250, 250);&quot;&gt; &lt;/span&gt;&lt;span style=&quot;box-sizing: border-box; margin: 0px; color: var(--hljs-literal-color); font-family: &amp;quot;Roboto Mono&amp;quot;, ui-monospace, SFMono-Regular, Menlo, Monaco, Consolas, &amp;quot;Liberation Mono&amp;quot;, &amp;quot;Courier New&amp;quot;, monospace; text-align: start; white-space: pre;&quot; class=&quot;hljs-literal&quot;&gt;NULL&lt;/span&gt;&lt;/font&gt;" style="text;html=1;align=center;verticalAlign=middle;resizable=0;points=[];autosize=1;strokeColor=none;fillColor=none;" vertex="1" parent="fPFFHtyQ8fmGZfRSbvxg-19">
          <mxGeometry y="65" width="180" height="30" as="geometry" />
        </mxCell>
        <mxCell id="fPFFHtyQ8fmGZfRSbvxg-25" value="&lt;div style=&quot;text-align: start; font-size: 12px;&quot;&gt;&lt;span style=&quot;background-color: initial; font-size: 12px;&quot;&gt;&lt;b&gt;id&lt;/b&gt;,&amp;nbsp;&lt;/span&gt;&lt;span style=&quot;background-color: initial; text-align: center; white-space: pre; font-size: 12px;&quot;&gt;&lt;font style=&quot;font-size: 12px;&quot; face=&quot;Roboto Mono, ui-monospace, SFMono-Regular, Menlo, Monaco, Consolas, Liberation Mono, Courier New, monospace&quot;&gt;SERIAL PRIMARY KEY&lt;/font&gt;&lt;/span&gt;&lt;/div&gt;" style="text;html=1;align=center;verticalAlign=middle;resizable=0;points=[];autosize=1;strokeColor=none;fillColor=none;fontSize=12;" vertex="1" parent="fPFFHtyQ8fmGZfRSbvxg-19">
          <mxGeometry y="30" width="170" height="30" as="geometry" />
        </mxCell>
        <mxCell id="fPFFHtyQ8fmGZfRSbvxg-20" value="disk" style="shape=cube;whiteSpace=wrap;html=1;boundedLbl=1;backgroundOutline=1;darkOpacity=0.05;darkOpacity2=0.1;" vertex="1" parent="1">
          <mxGeometry x="250" y="590" width="60" height="30" as="geometry" />
        </mxCell>
        <mxCell id="fPFFHtyQ8fmGZfRSbvxg-22" value="Logger" style="rounded=1;whiteSpace=wrap;html=1;fillColor=#dae8fc;strokeColor=#6c8ebf;" vertex="1" parent="1">
          <mxGeometry x="220" y="560" width="90" height="20" as="geometry" />
        </mxCell>
        <mxCell id="fPFFHtyQ8fmGZfRSbvxg-23" style="edgeStyle=orthogonalEdgeStyle;rounded=0;orthogonalLoop=1;jettySize=auto;html=1;entryX=0;entryY=0;entryDx=0;entryDy=10;entryPerimeter=0;" edge="1" parent="1" target="fPFFHtyQ8fmGZfRSbvxg-20">
          <mxGeometry relative="1" as="geometry">
            <mxPoint x="230" y="580" as="sourcePoint" />
            <Array as="points">
              <mxPoint x="230" y="580" />
              <mxPoint x="230" y="600" />
            </Array>
          </mxGeometry>
        </mxCell>
        <mxCell id="fPFFHtyQ8fmGZfRSbvxg-26" style="edgeStyle=orthogonalEdgeStyle;rounded=0;orthogonalLoop=1;jettySize=auto;html=1;exitX=1;exitY=0.25;exitDx=0;exitDy=0;entryX=0;entryY=0;entryDx=0;entryDy=52.5;entryPerimeter=0;" edge="1" parent="1" source="fPFFHtyQ8fmGZfRSbvxg-5" target="fPFFHtyQ8fmGZfRSbvxg-1">
          <mxGeometry relative="1" as="geometry" />
        </mxCell>
        <mxCell id="fPFFHtyQ8fmGZfRSbvxg-27" value="celery&lt;div&gt;backend&lt;/div&gt;" style="text;html=1;align=center;verticalAlign=middle;whiteSpace=wrap;rounded=0;" vertex="1" parent="1">
          <mxGeometry x="600" y="370" width="60" height="30" as="geometry" />
        </mxCell>
        <mxCell id="fPFFHtyQ8fmGZfRSbvxg-28" value="GATE_SWITCH" style="swimlane;whiteSpace=wrap;html=1;startSize=23;" vertex="1" parent="1">
          <mxGeometry x="590" y="540" width="210" height="120" as="geometry" />
        </mxCell>
        <mxCell id="fPFFHtyQ8fmGZfRSbvxg-29" value="&lt;div style=&quot;text-align: left;&quot;&gt;&lt;b style=&quot;background-color: initial;&quot;&gt;gate&lt;/b&gt;&lt;span style=&quot;background-color: initial;&quot;&gt;, &lt;font face=&quot;Roboto Mono, ui-monospace, SFMono-Regular, Menlo, Monaco, Consolas, Liberation Mono, Courier New, monospace&quot;&gt;&lt;span style=&quot;white-space: pre;&quot;&gt;FOREIGN KEY(GATE.id)&lt;/span&gt;&lt;/font&gt;&lt;/span&gt;&lt;/div&gt;" style="text;html=1;align=center;verticalAlign=middle;resizable=0;points=[];autosize=1;strokeColor=none;fillColor=none;" vertex="1" parent="fPFFHtyQ8fmGZfRSbvxg-28">
          <mxGeometry y="30" width="200" height="30" as="geometry" />
        </mxCell>
        <mxCell id="fPFFHtyQ8fmGZfRSbvxg-31" value="&lt;div style=&quot;text-align: left;&quot;&gt;&lt;b style=&quot;background-color: initial;&quot;&gt;value&lt;/b&gt;&lt;span style=&quot;background-color: initial;&quot;&gt;, &lt;font face=&quot;Roboto Mono, ui-monospace, SFMono-Regular, Menlo, Monaco, Consolas, Liberation Mono, Courier New, monospace&quot;&gt;&lt;span style=&quot;white-space: pre;&quot;&gt;BOOLEAN NOT NULL&lt;/span&gt;&lt;/font&gt;&lt;/span&gt;&lt;/div&gt;" style="text;html=1;align=center;verticalAlign=middle;resizable=0;points=[];autosize=1;strokeColor=none;fillColor=none;" vertex="1" parent="fPFFHtyQ8fmGZfRSbvxg-28">
          <mxGeometry y="60" width="180" height="30" as="geometry" />
        </mxCell>
        <mxCell id="fPFFHtyQ8fmGZfRSbvxg-32" value="&lt;div style=&quot;text-align: left;&quot;&gt;&lt;b style=&quot;background-color: initial;&quot;&gt;created_at&lt;/b&gt;&lt;span style=&quot;background-color: initial;&quot;&gt;, &lt;font face=&quot;Roboto Mono, ui-monospace, SFMono-Regular, Menlo, Monaco, Consolas, Liberation Mono, Courier New, monospace&quot;&gt;&lt;span style=&quot;white-space: pre;&quot;&gt;TIMESTAMP NOT NULL&lt;/span&gt;&lt;/font&gt;&lt;/span&gt;&lt;/div&gt;" style="text;html=1;align=center;verticalAlign=middle;resizable=0;points=[];autosize=1;strokeColor=none;fillColor=none;" vertex="1" parent="fPFFHtyQ8fmGZfRSbvxg-28">
          <mxGeometry y="90" width="220" height="30" as="geometry" />
        </mxCell>
        <mxCell id="fPFFHtyQ8fmGZfRSbvxg-34" value="Views" style="rounded=1;whiteSpace=wrap;html=1;fillColor=#dae8fc;strokeColor=#6c8ebf;" vertex="1" parent="1">
          <mxGeometry x="220" y="517.5" width="90" height="20" as="geometry" />
        </mxCell>
        <mxCell id="fPFFHtyQ8fmGZfRSbvxg-38" value="Models" style="rounded=1;whiteSpace=wrap;html=1;fillColor=#dae8fc;strokeColor=#6c8ebf;" vertex="1" parent="1">
          <mxGeometry x="220" y="537.5" width="90" height="20" as="geometry" />
        </mxCell>
        <mxCell id="fPFFHtyQ8fmGZfRSbvxg-39" value="REST" style="text;html=1;align=center;verticalAlign=middle;whiteSpace=wrap;rounded=0;" vertex="1" parent="1">
          <mxGeometry x="220" y="380" width="60" height="30" as="geometry" />
        </mxCell>
      </root>
    </mxGraphModel>
  </diagram>
</mxfile>
